<svg xmlns="http://www.w3.org/2000/svg" viewBox="0 0 120 120">
  <rect x="0" y="0" width="24" height="24" fill="#000"/>
  <rect x="32" y="0" width="24" height="24" fill="#bdbdbd"/>
  <rect x="64" y="0" width="24" height="24" fill="#000"/>
  <rect x="96" y="0" width="24" height="24" fill="#bdbdbd"/>
  <rect x="0" y="32" width="24" height="24" fill="#bdbdbd"/>
  <rect x="32" y="32" width="24" height="24" fill="#000"/>
  <rect x="64" y="32" width="24" height="24" fill="#000"/>
  <rect x="96" y="32" width="24" height="24" fill="#bdbdbd"/>
  <rect x="0" y="64" width="24" height="24" fill="#000"/>
  <rect x="32" y="64" width="24" height="24" fill="#bdbdbd"/>
  <rect x="64" y="64" width="24" height="24" fill="#bdbdbd"/>
  <rect x="96" y="64" width="24" height="24" fill="#000"/>
  <rect x="0" y="96" width="24" height="24" fill="#000"/>
  <rect x="32" y="96" width="24" height="24" fill="#000"/>
  <rect x="64" y="96" width="24" height="24" fill="#000"/>
  <rect x="96" y="96" width="24" height="24" fill="#000"/>
</svg>
